{"title":"Kaanchi (2014)1CDRip -DVDScr -XviD{VikkyMaxx}[SilverRG]","uid":10042805,"size":739257023,"categoryP":"video","categoryS":"movies","magnet":"?xt=urn:btih:3979cd0df711c9cf785bc69c1deeef5b99c45842&amp;dn=Kaanchi+%282014%291CDRip+-DVDScr+-XviD%7BVikkyMaxx%7D%5BSilverRG%5D&amp;tr=udp%3A%2F%2Ftracker.openbittorrent.com%3A80&amp;tr=udp%3A%2F%2Fopen.demonii.com%3A1337&amp;tr=udp%3A%2F%2Ftracker.coppersurfer.tk%3A6969&amp;tr=udp%3A%2F%2Fexodus.desync.com%3A6969","seeders":1,"leechers":0,"uploader":"shailendramaxx","files":23,"time":1398486061,"description":"VikkyMaxx SilverRG Presents\n\n\n\nGeneral:- \n\nComplete name : Kaanchi(2014)1CDRip-DVDScr-XviD{VikkyMaxx}[SilverRG]\nFormat : Matroska \nFormat version : Version 2 \nFile size : 697 MiB \nDuration : 2h 30mn \nOverall bit rate : 648 Kbps \nEncoded date : UTC 2014-04-25 15:50:08 \nWriting application : mkvmerge v6.5.0 ('Isn't she lovely') built on Oct 20 2013 12:50:05 \nWriting library : libebml v1.3.0 + libmatroska v1.4.1 \n\nVideo:-\n \nID : 1 \nFormat : AVC \nFormat/Info : Advanced Video Codec \nFormat profile : &lt;a class=&quot;__cf_email__&quot; href=&quot;/cdn-cgi/l/email-protection&quot; data-cfemail=&quot;367e5f515e767a051806&quot;&gt;[email&amp;#160;protected]&lt;/a&gt;&lt;script cf-hash='f9e31' type=&quot;text/javascript&quot;&gt;\n/* &lt;![CDATA[ */!function(){try{var t=&quot;currentScript&quot;in document?document.currentScript:function(){for(var t=document.getElementsByTagName(&quot;script&quot;),e=t.length;e--;)if(t[e].getAttribute(&quot;cf-hash&quot;))return t[e]}();if(t&amp;&amp;t.previousSibling){var e,r,n,i,c=t.previousSibling,a=c.getAttribute(&quot;data-cfemail&quot;);if(a){for(e=&quot;&quot;,r=parseInt(a.substr(0,2),16),n=2;a.length-n;n+=2)i=parseInt(a.substr(n,2),16)^r,e+=String.fromCharCode(i);e=document.createTextNode(e),c.parentNode.replaceChild(e,c)}}}catch(u){}}();/* ]]&gt; */&lt;/script&gt; \nFormat settings, CABAC : Yes \nFormat settings, ReFrames : 4 frames \nCodec ID : V_MPEG4/ISO/AVC \nDuration : 2h 30mn \nBit rate : 422 Kbps \nWidth : 640 pixels \nHeight : 272 pixels \nDisplay aspect ratio : 2.35:1 \nFrame rate mode : Constant \nFrame rate : 29.970 fps \nColor space : YUV \nChroma subsampling : 4:2:0 \nBit depth : 8 bits \nScan type : Progressive \nBits/(Pixel*Frame) : 0.081 \nStream size : 442 MiB (63%) \nWriting library : x264 core 133 r2334 a3ac64b \nEncoding settings : cabac=1 / ref=3 / deblock=1:-1:-1 \nForced : No \n\nAudio:-\n \nID : 2 \nFormat : AC-3 \nFormat/Info : Audio Coding 3 \nMode extension : CM (complete main) \nFormat settings, Endianness : Big \nCodec ID : A_AC3 \nDuration : 2h 30mn \nBit rate mode : Constant \nBit rate : 224 Kbps \nChannel(s) : 2 channels \nChannel positions : Front: L R \nSampling rate : 48.0 KHz \nBit depth : 16 bits \nCompression mode : Lossy \nStream size : 241 MiB (35%) \nDefault : Yes \nForced : No \nLanguage: HINDI\n\n\n\nSCREENS:-\n &lt;a href=&quot;\nhttp://i.imgur.com/I4qf2bN.jpg&quot; rel=&quot;nofollow&quot; target=&quot;_NEW&quot;&gt;\nhttp://i.imgur.com/I4qf2bN.jpg&lt;/a&gt;\n &lt;a href=&quot;\nhttp://i.imgur.com/B8NhRvC.jpg&quot; rel=&quot;nofollow&quot; target=&quot;_NEW&quot;&gt;\nhttp://i.imgur.com/B8NhRvC.jpg&lt;/a&gt;\n &lt;a href=&quot;\nhttp://i.imgur.com/YhOuy1q.jpg&quot; rel=&quot;nofollow&quot; target=&quot;_NEW&quot;&gt;\nhttp://i.imgur.com/YhOuy1q.jpg&lt;/a&gt;\n &lt;a href=&quot;\nhttp://i.imgur.com/SZ41vag.jpg&quot; rel=&quot;nofollow&quot; target=&quot;_NEW&quot;&gt;\nhttp://i.imgur.com/SZ41vag.jpg&lt;/a&gt;\n &lt;a href=&quot;\nhttp://i.imgur.com/NmhCLVD.jpg&quot; rel=&quot;nofollow&quot; target=&quot;_NEW&quot;&gt;\nhttp://i.imgur.com/NmhCLVD.jpg&lt;/a&gt;\n &lt;a href=&quot;\nhttp://i.imgur.com/vZCQ3aW.jpg&quot; rel=&quot;nofollow&quot; target=&quot;_NEW&quot;&gt;\nhttp://i.imgur.com/vZCQ3aW.jpg&lt;/a&gt;\n &lt;a href=&quot;\nhttp://i.imgur.com/rUmbR8q.jpg&quot; rel=&quot;nofollow&quot; target=&quot;_NEW&quot;&gt;\nhttp://i.imgur.com/rUmbR8q.jpg&lt;/a&gt;\n &lt;a href=&quot;\nhttp://i.imgur.com/KkO47qf.jpg&quot; rel=&quot;nofollow&quot; target=&quot;_NEW&quot;&gt;\nhttp://i.imgur.com/KkO47qf.jpg&lt;/a&gt;\n &lt;a href=&quot;\nhttp://i.imgur.com/cN9rwXP.jpg&quot; rel=&quot;nofollow&quot; target=&quot;_NEW&quot;&gt;\nhttp://i.imgur.com/cN9rwXP.jpg&lt;/a&gt;\n &lt;a href=&quot;\nhttp://i.imgur.com/vOJso2C.jpg&quot; rel=&quot;nofollow&quot; target=&quot;_NEW&quot;&gt;\nhttp://i.imgur.com/vOJso2C.jpg&lt;/a&gt;\n\n\n\n\nSAMPLE AND SCREENSHOTS INCLUDED\n\n    \n             \n             ********** PLEASE SEED AS LONG AS YOU CAN AFTER DOWNLOAD **********\n       \n                    ***** THANK YOU REGARDS - VIKKYMAXX (SilverRG) *****\n\t\t\t\t\n\n\n                     ","torrent":{"xt":"urn:btih:3979cd0df711c9cf785bc69c1deeef5b99c45842","amp;dn":"Kaanchi+%282014%291CDRip+-DVDScr+-XviD%7BVikkyMaxx%7D%5BSilverRG%5D","amp;tr":["udp%3A%2F%2Ftracker.openbittorrent.com%3A80","udp%3A%2F%2Fopen.demonii.com%3A1337","udp%3A%2F%2Ftracker.coppersurfer.tk%3A6969","udp%3A%2F%2Fexodus.desync.com%3A6969"],"infoHash":"3979cd0df711c9cf785bc69c1deeef5b99c45842","infoHashBuffer":{"type":"Buffer","data":[57,121,205,13,247,17,201,207,120,91,198,156,29,238,239,91,153,196,88,66]},"announce":[],"urlList":[]}}